Coordinates
version=1
nRows=13
nColumns=40
inDegrees=yes

Units are S.I. units (second, meters, Newtons, ...)
Angles are in degrees.

endheader
time	pelvis_tilt	pelvis_list	pelvis_rotation	pelvis_tx	pelvis_ty	pelvis_tz	hip_flexion_r	hip_adduction_r	hip_rotation_r	knee_angle_r	knee_angle_r_beta	ankle_angle_r	subtalar_angle_r	mtp_angle_r	hip_flexion_l	hip_adduction_l	hip_rotation_l	knee_angle_l	knee_angle_l_beta	ankle_angle_l	subtalar_angle_l	mtp_angle_l	lumbar_extension	lumbar_bending	lumbar_rotation	arm_flex_r	arm_add_r	arm_rot_r	elbow_flex_r	pro_sup_r	wrist_flex_r	wrist_dev_r	arm_flex_l	arm_add_l	arm_rot_l	elbow_flex_l	pro_sup_l	wrist_flex_l	wrist_dev_l
     15.51000000	     -3.20259409	     -4.27849762	     -1.81314649	      0.76911482	      0.93458797	      0.42841167	     28.22056368	     -5.13055645	     -3.29282689	     67.47369575	     67.47369575	      2.82102978	     -6.78251695	     -1.91068404	     12.33015470	     -3.79887655	     -5.17999347	     20.90794404	     20.90794404	     14.36467816	     -7.62844174	      0.38995797	     -9.79626871	      8.10665900	      2.06423946	      0.97450256	    -11.96906222	    -13.41338685	     28.48265622	     44.42465797	      0.00000000	      0.00000000	     14.71055186	    -17.25158126	     -6.49446910	     50.87577318	     44.70972302	      0.00000000	      0.00000000
     15.52264286	     -3.06723733	     -4.35671993	     -1.97573557	      0.76896641	      0.93507619	      0.42848786	     28.91316721	     -4.92840571	     -3.32413854	     66.11041294	     66.11041294	      3.03633812	     -7.31774908	     -1.85721560	     11.36589850	     -3.83490923	     -5.29533181	     20.30135518	     20.30135518	     14.61880985	     -7.51201050	      0.37982469	     -9.94472801	      8.12203722	      2.15943271	     -1.03970642	    -11.63008989	    -13.38737390	     27.46018137	     44.47855780	      0.00000000	      0.00000000	     15.79731764	    -17.56481079	     -6.79335278	     51.77981321	     44.78389864	      0.00000000	      0.00000000
     15.53528571	     -3.06741658	     -4.47430770	     -2.07402246	      0.76865108	      0.93514671	      0.42857903	     29.68226569	     -4.75202233	     -3.52367648	     64.63702509	     64.63702509	      3.26868762	     -7.69246647	     -1.75646278	     10.71808208	     -3.92845056	     -5.32661359	     19.96948579	     19.96948579	     14.92646719	     -7.46325173	      0.28732923	     -9.96198390	      8.12761099	      1.94316700	     -2.94945267	    -11.22033096	    -13.39664217	     26.56584904	     44.51527641	      0.00000000	      0.00000000	     16.72444486	    -18.09265191	     -7.10157023	     52.52114282	     44.84190196	      0.00000000	      0.00000000
     15.54792857	     -2.90736668	     -4.57633072	     -2.32420730	      0.76857362	      0.93546767	      0.42879441	     30.14178712	     -4.44572155	     -3.51322902	     62.86608003	     62.86608003	      3.35691470	     -8.27382740	     -1.57518278	      9.76614555	     -4.01288697	     -5.55180248	     19.46741395	     19.46741395	     15.20285467	     -7.35239142	      0.13894934	    -10.13317886	      8.19009135	      2.48152154	     -4.96916513	    -10.96926414	    -13.48884383	     25.35124875	     44.59075302	      0.00000000	      0.00000000	     17.88001992	    -18.04469101	     -7.49613435	     54.02145310	     44.93368783	      0.00000000	      0.00000000
     15.56057143	     -2.97382091	     -4.59522855	     -2.44031615	      0.76824529	      0.93528393	      0.42892448	     30.74185481	     -4.36358154	     -3.75445985	     60.90328195	     60.90328195	      3.63538740	     -8.42509243	     -1.38673598	      9.26874665	     -4.00607164	     -5.60763944	     19.25541477	     19.25541477	     15.46966241	     -7.32409897	      0.02701186	    -10.02604552	      8.18523746	      2.06452057	     -6.62247855	    -10.59597724	    -13.54535831	     24.64661215	     44.62052928	      0.00000000	      0.00000000	     18.64865002	    -18.71157236	     -7.80516618	     54.59856231	     44.98283775	      0.00000000	      0.00000000
     15.57321429	     -2.83883865	     -4.72271055	     -2.66348112	      0.76806644	      0.93550505	      0.42925506	     30.92992217	     -4.02645624	     -3.90022860	     58.51965115	     58.51965115	      3.80727745	     -8.79985611	     -1.12592188	      8.34554057	     -4.11365063	     -5.82542851	     18.70098414	     18.70098414	     15.69611677	     -7.17593668	     -0.13809134	    -10.28053531	      8.25620134	      2.52523712	     -8.37223595	    -10.35684493	    -13.75712499	     23.62853568	     44.70179652	      0.00000000	      0.00000000	     19.54695804	    -18.56988590	     -8.24167998	     56.20723089	     45.07526926	      0.00000000	      0.00000000
     15.58585714	     -2.84376869	     -4.74969978	     -2.87240020	      0.76783777	      0.93530858	      0.42962256	     31.16676098	     -3.84895224	     -4.16619983	     55.89209075	     55.89209075	      4.01522260	     -8.88637467	     -1.04922956	      7.67851076	     -4.12744938	     -6.02778504	     18.31678003	     18.31678003	     15.90400383	     -7.08510714	     -0.44225338	    -10.32053562	      8.18713777	      2.56448240	     -9.88652612	    -10.05449398	    -14.19157676	     22.86147901	     44.81216364	      0.00000000	      0.00000000	     20.13360320	    -18.76316656	     -8.83306370	     57.77620730	     45.19280344	      0.00000000	      0.00000000
     15.59850000	     -3.00298890	     -4.83675931	     -3.05030057	      0.76743583	      0.93492388	      0.43013963	     31.38367743	     -3.62579779	     -4.64306642	     52.88431465	     52.88431465	      4.34642574	     -8.71912185	     -0.84081712	      7.24274371	     -4.21790466	     -6.09270688	     18.00932664	     18.00932664	     16.10966340	     -7.07638580	     -0.54017193	    -10.25229706	      8.19510309	      2.34028042	    -11.20105156	     -9.89354241	    -14.36055654	     22.34786706	     44.85466358	      0.00000000	      0.00000000	     20.64130520	    -19.11845033	     -9.13740526	     58.51046265	     45.24529114	      0.00000000	      0.00000000
     15.61114286	     -2.94190013	     -4.82878266	     -3.33247983	      0.76727026	      0.93477036	      0.43066721	     31.20579118	     -3.43094033	     -5.04926759	     49.51617859	     49.51617859	      4.45983935	     -8.44911798	     -1.06518203	      6.45323750	     -4.18230258	     -6.39583271	     17.55535333	     17.55535333	     16.30228610	     -7.02035257	     -0.79437620	    -10.37413266	      8.13461350	      2.57821387	    -12.54787759	     -9.70259211	    -14.89206496	     21.91564358	     44.96537126	      0.00000000	      0.00000000	     21.06952598	    -19.06915425	     -9.78283050	     60.45402274	     45.37060706	      0.00000000	      0.00000000
     15.62378571	     -3.10171551	     -4.81353854	     -3.59318898	      0.76699371	      0.93420550	      0.43138027	     31.06994971	     -3.22314535	     -5.62207280	     45.78521238	     45.78521238	      4.48027568	     -7.99779205	     -2.06638224	      5.97389145	     -4.16560435	     -6.56755282	     17.19803522	     17.19803522	     16.42252535	     -6.99846755	     -1.18263863	    -10.30856290	      8.02906604	      2.38297629	    -13.58089763	     -9.58701146	    -15.89277307	     21.86704093	     45.15733835	      0.00000000	      0.00000000	     20.92435085	    -19.26380339	    -10.71825702	     62.54031848	     45.56063245	      0.00000000	      0.00000000
     15.63642857	     -3.31481536	     -4.87172427	     -3.83332251	      0.76670282	      0.93353496	      0.43224011	     30.83896844	     -2.88830580	     -6.31525008	     41.84385487	     41.84385487	      4.79311399	     -7.22045940	     -1.79647073	      5.63231722	     -4.24161247	     -6.67527129	     16.99913395	     16.99913395	     16.67381812	     -7.09747060	     -1.28068254	    -10.13518210	      8.02493153	      2.30529453	    -14.45422155	     -9.56285568	    -16.04207847	     21.57289833	     45.19328362	      0.00000000	      0.00000000	     21.30800233	    -19.51294677	    -10.92028516	     63.10466972	     45.60182622	      0.00000000	      0.00000000
     15.64907143	     -3.39112402	     -4.83356260	     -4.11678219	      0.76657084	      0.93297762	      0.43314559	     30.28770529	     -2.66247792	     -7.17477376	     37.67362191	     37.67362191	      4.95364761	     -5.83476842	     -2.21804963	      5.02554668	     -4.20466278	     -6.93751514	     16.61081345	     16.61081345	     16.88870799	     -6.97191446	     -1.48032848	    -10.21115256	      7.88386284	      2.49446220	    -15.36563595	     -9.51360827	    -16.53704442	     21.53617133	     45.29541284	      0.00000000	      0.00000000	     21.44385656	    -19.44811015	    -11.41306928	     64.78504196	     45.71862143	      0.00000000	      0.00000000
     15.66171429	     -3.59673297	     -4.89683431	     -4.37318570	      0.76646825	      0.93214035	      0.43428151	     29.73270853	     -2.18303977	     -7.97976136	     33.40949899	     33.40949899	      5.16146461	     -4.57190914	     -1.80930658	      4.67800851	     -4.30100179	     -7.06690743	     16.45947666	     16.45947666	     17.16106043	     -7.07669747	     -1.61934155	    -10.06105884	      7.86635222	      2.48829330	    -15.99795101	     -9.57594058	    -16.69986747	     21.42540199	     45.33005012	      0.00000000	      0.00000000	     21.63148656	    -19.55516219	    -11.58976877	     65.47805959	     45.76155714	      0.00000000	      0.00000000
